<?xml version="1.0" encoding="UTF-8" standalone="no"?>
<!DOCTYPE svg PUBLIC "-//W3C//DTD SVG 1.1//EN" "http://www.w3.org/Graphics/SVG/1.1/DTD/svg11.dtd">
<svg width="259.20" height="259.20" viewBox="0.00 0.00 1080.00 1080.00" xmlns="http://www.w3.org/2000/svg" xmlns:xlink="http://www.w3.org/1999/xlink">
<g stroke-linecap="round" id="Layer_5_Copy">
<path d="M265.00,690.00 C288.77,686.36 330.19,679.99 347.84,677.24 C357.37,675.67 375.53,671.35 384.04,668.62 C392.53,665.88 408.42,659.26 415.82,655.38 C423.20,651.49 436.29,642.94 443.64,637.24 C450.71,631.73 463.89,618.96 469.78,611.92 C475.65,604.87 486.08,589.36 490.64,580.89 C494.60,573.52 503.50,553.10 506.88,546.61 C510.78,539.19 518.57,527.82 522.47,523.86 C524.42,521.90 528.31,518.84 530.26,517.74 C532.21,516.65 536.10,515.34 538.05,515.11 C540.00,514.90 543.90,515.34 545.85,515.99 C547.79,516.65 551.69,518.84 553.64,520.36 C557.53,523.44 565.33,533.07 569.22,539.61 C573.12,546.19 580.99,563.36 584.97,572.24 C589.21,581.06 598.98,597.29 604.51,604.70 C610.07,612.09 622.48,625.47 629.33,631.45 C634.37,635.82 649.73,647.11 656.93,651.35 C664.05,655.52 679.39,662.72 687.60,665.75 C695.83,668.76 713.38,673.65 722.70,675.52 C729.35,676.85 801.95,688.02 815.00,690.00" fill="none" stroke="rgb(255, 162, 71)" stroke-width="100.00" stroke-opacity="1.00" stroke-linejoin="round"/>
<path d="M265.38,691.88 L265.38,691.88 Z" fill="none" stroke="rgb(255, 162, 71)" stroke-width="50.00" stroke-opacity="1.00" stroke-linejoin="miter"/>
<path d="M265.00,690.00 L140.00,840.00 L140.00,940.00 L940.00,940.00 L940.00,840.00 L815.00,690.00 L265.00,690.00 Z" fill="none" stroke="rgb(255, 162, 71)" stroke-width="50.00" stroke-opacity="1.00" stroke-linejoin="miter"/>
<path d="M165.00,915.00 L915.00,915.00 L915.00,890.00 L165.00,890.00 L165.00,865.00 L915.00,865.00 L915.00,840.00 L165.00,840.00 L190.00,815.00 L890.00,815.00 L865.00,790.00 L215.00,790.00 L240.00,765.00 L840.00,765.00 L840.00,740.00 L240.00,740.00 L365.00,715.00 L715.00,715.00" fill="none" stroke="rgb(255, 162, 71)" stroke-width="50.00" stroke-opacity="1.00" stroke-linejoin="miter"/>
<path d="M490.00,665.00 L590.00,665.00 L540.00,590.00 L515.00,640.00 L540.00,640.00" fill="none" stroke="rgb(255, 162, 71)" stroke-width="50.00" stroke-opacity="1.00" stroke-linejoin="miter"/>
<path d="M90.00,90.00 L990.00,90.00" fill="none" stroke="rgb(0, 0, 0)" stroke-width="100.00" stroke-opacity="1.00" stroke-linejoin="round"/>
<path d="M90.00,990.00 L990.00,990.00" fill="none" stroke="rgb(0, 0, 0)" stroke-width="100.00" stroke-opacity="1.00" stroke-linejoin="round"/>
<path d="M90.00,90.00 C91.18,110.81 93.25,146.64 94.15,161.67 C94.99,175.48 96.19,187.66 97.91,196.50 C99.65,205.31 104.84,223.01 108.30,231.89 C111.77,240.78 120.44,258.61 125.64,267.57 C130.99,276.76 142.04,292.96 146.26,298.88 C155.07,310.76 175.19,334.67 186.52,346.71 C192.36,352.75 204.68,364.86 210.97,370.92 C217.63,377.01 231.30,389.20 238.31,395.31 C245.69,401.45 260.66,413.74 268.26,419.90 C275.43,426.06 289.57,439.18 294.67,444.53 C300.51,450.69 310.70,463.01 315.05,469.17 C319.38,475.33 326.55,487.65 329.39,493.81 C332.21,499.97 336.36,512.28 337.69,518.44 C339.00,524.60 340.13,536.92 339.95,543.08 C339.76,549.24 337.87,561.56 336.18,567.72 C334.47,573.88 329.57,586.19 326.37,592.35 C323.15,598.51 315.23,610.83 310.52,616.99 C305.79,623.15 295.56,634.67 288.63,641.63 C276.96,653.00 245.60,678.56 231.21,690.80 C224.37,696.90 211.06,709.08 204.59,715.15 C189.92,729.67 169.89,751.33 160.01,763.27 C155.25,769.23 146.26,781.12 142.04,787.04 C134.56,797.91 125.43,812.44 120.65,821.38 C115.89,830.31 108.09,848.12 105.05,856.98 C102.03,865.85 97.70,883.51 96.40,892.31 C95.21,900.49 90.99,972.47 90.00,990.00" fill="none" stroke="rgb(0, 0, 0)" stroke-width="100.00" stroke-opacity="1.00" stroke-linejoin="round"/>
<path d="M990.00,990.00 C988.82,969.20 986.75,933.36 985.85,918.34 C985.01,904.52 983.82,892.35 982.09,883.50 C980.35,874.69 975.16,856.99 971.71,848.11 C968.23,839.22 959.56,821.39 954.37,812.44 C949.01,803.24 937.96,787.04 933.74,781.12 C924.94,769.24 904.81,745.33 893.48,733.29 C887.64,727.25 875.32,715.15 869.03,709.08 C862.37,703.00 848.71,690.80 841.69,684.69 C834.32,678.55 819.34,666.26 811.75,660.10 C804.58,653.95 790.43,640.83 785.33,635.47 C779.49,629.31 769.30,616.99 764.95,610.83 C760.62,604.67 753.45,592.35 750.61,586.19 C747.79,580.04 743.64,567.72 742.31,561.56 C741.00,555.40 739.87,543.08 740.05,536.92 C740.25,530.76 742.13,518.44 743.82,512.28 C745.53,506.13 750.44,493.81 753.63,487.65 C756.85,481.49 764.77,469.17 769.48,463.01 C774.21,456.85 784.44,445.34 791.37,438.37 C803.04,427.00 834.41,401.44 848.80,389.20 C855.63,383.10 868.94,370.92 875.41,364.85 C890.08,350.33 910.11,328.68 919.99,316.73 C924.76,310.77 933.74,298.88 937.96,292.96 C945.44,282.10 954.57,267.56 959.35,258.62 C964.11,249.69 971.91,231.89 974.95,223.02 C977.97,214.15 982.30,196.49 983.60,187.69 C984.80,179.51 989.02,107.53 990.00,90.00" fill="none" stroke="rgb(0, 0, 0)" stroke-width="100.00" stroke-opacity="1.00" stroke-linejoin="round"/>
<path d="M539.36,734.36 L539.36,734.36" fill="none" stroke="rgb(255, 0, 0)" stroke-width="118.67" stroke-opacity="1.00" stroke-linejoin="round"/>
<path d="M539.36,734.36 L776.71,734.36" fill="none" stroke="rgb(255, 0, 0)" stroke-width="118.67" stroke-opacity="1.00" stroke-linejoin="round"/>
<path d="M539.36,170.66 L539.36,170.66" fill="none" stroke="rgb(255, 0, 0)" stroke-width="118.67" stroke-opacity="1.00" stroke-linejoin="round"/>
<path d="M539.36,734.36 L331.68,734.36" fill="none" stroke="rgb(255, 0, 0)" stroke-width="118.67" stroke-opacity="1.00" stroke-linejoin="round"/>
<path d="M302.01,734.36 L391.02,734.36" fill="none" stroke="rgb(255, 0, 0)" stroke-width="118.67" stroke-opacity="1.00" stroke-linejoin="round"/>
<path d="M539.36,170.66 L183.34,734.36" fill="none" stroke="rgb(255, 0, 0)" stroke-width="118.67" stroke-opacity="1.00" stroke-linejoin="round"/>
<path d="M183.34,734.36 L776.71,734.36" fill="none" stroke="rgb(255, 0, 0)" stroke-width="118.67" stroke-opacity="1.00" stroke-linejoin="round"/>
<path d="M539.36,170.66 L895.38,734.36" fill="none" stroke="rgb(255, 0, 0)" stroke-width="118.67" stroke-opacity="1.00" stroke-linejoin="round"/>
<path d="M895.38,734.36 L776.71,734.36" fill="none" stroke="rgb(255, 0, 0)" stroke-width="118.67" stroke-opacity="1.00" stroke-linejoin="round"/>
<path d="M539.36,615.69 L539.36,615.69" fill="none" stroke="rgb(255, 0, 0)" stroke-width="71.20" stroke-opacity="1.00" stroke-linejoin="round"/>
<path d="M539.36,378.34 L539.36,526.68" fill="none" stroke="rgb(255, 0, 0)" stroke-width="71.20" stroke-opacity="1.00" stroke-linejoin="round"/>
</g>
</svg>
